<svg width="100" height="100" viewBox="0 -0.5 21 21" xmlns="http://www.w3.org/2000/svg"><path d="M7.219 4c0-.552.47-1 1.05-1 .58 0 1.05.448 1.05 1s-.47 1-1.05 1c-.58 0-1.05-.448-1.05-1ZM16.8 15c0 .552-.47 1-1.05 1H5.25c-.58 0-1.05-.448-1.05-1s.47-1 1.05-1h10.5c.58 0 1.05.448 1.05 1Zm0-4c0 .552-.47 1-1.05 1H5.25c-.58 0-1.05-.448-1.05-1s.47-1 1.05-1h10.5c.58 0 1.05.448 1.05 1Zm2.1 6c0 .552-.47 1-1.05 1H3.15c-.58 0-1.05-.448-1.05-1V7.044c0-.133.056-.26.153-.353L4.2 4.837V6c0 1.105.94 2 2.1 2h8.4c1.16 0 2.1-.895 2.1-2V2h1.05c.58 0 1.05.448 1.05 1v14ZM6.3 2.837l.726-.691A.54.54 0 0 1 7.396 2H14.7v3c0 .552-.47 1-1.05 1h-6.3C6.77 6 6.3 5.552 6.3 5V2.837ZM18.9 0H6.75c-.278 0-.544.105-.74.292L.311 5.707a.976.976 0 0 0-.308.708L0 18c0 1.104.94 2 2.099 2H18.9c1.16 0 2.1-.895 2.1-2V2c0-1.105-.94-2-2.1-2Z" fill="#3572ce" fill-rule="evenodd"/></svg>